<svg width="200" height="107" viewBox="0 0 200 107" fill="none" xmlns="http://www.w3.org/2000/svg">
<path d="M13.554 39.7175C12.1364 38.8343 7.1679 29.8517 6.16783 26.2653C4.19434 26.8646 0.876093 28.2902 0 28.9143C2.40468 30.4406 6.27048 35.9032 10.9035 42.8135C10.7303 46.8274 10.6025 52.5973 9.76738 55.6858C10.2456 55.9525 14.8476 55.799 15.9386 55.5111C15.1528 52.6932 14.8667 47.0325 14.9735 41.6217C16.779 36.5092 18.8575 31.7962 22.5917 23.896C21.683 23.3893 20.2406 23.1413 18.883 23.3423C17.876 29.58 16.1661 34.7458 13.554 39.7175Z" fill="white"/>
<path d="M33.2569 47.2089C34.6375 47.6697 36.5517 47.8718 37.2289 47.6931C37.2289 47.6931 37.3692 47.6168 37.3385 47.507C37.2059 47.0313 36.1537 46.4445 35.572 44.3585C34.5005 40.5159 36.2544 35.6528 36.9039 30.8846C36.2993 30.4548 34.3201 30.3092 33.0033 30.6566C31.7492 32.677 31.551 35.008 31.4363 36.3348C31.2108 38.7124 29.9899 41.4311 29.3517 43.0532C28.0479 46.3439 27.3689 47.8196 26.6981 48.3109C26.6025 48.2576 26.3531 48.0876 26.2511 47.7217C25.8939 46.4408 26.0563 42.8227 26.2392 41.5958C27.0474 35.8035 28.3409 32.4762 28.6597 31.8813C27.6726 31.2381 25.8604 31.402 24.9951 31.6303C22.4575 34.6966 21.511 41.5861 21.6388 45.5206C21.6988 46.6048 21.8277 47.3566 22.2052 48.7107C23.0987 50.3215 25.5014 50.8269 27.1019 50.4831C27.4303 50.3572 27.9474 49.7493 28.4032 48.9218C28.9656 47.7519 30.6232 43.2678 31.0472 43.1952C31.0262 43.5543 31.0734 44.0133 31.2265 44.5623C31.4612 45.404 32.1021 46.6886 33.2569 47.2089Z" fill="white"/>
<path d="M60.3035 28.8749C59.8866 31.1458 58.7359 34.9854 59.6646 38.3156C60.2258 40.3284 61.4477 41.8133 63.8178 41.1879C65.0969 40.8504 65.9494 39.9968 66.7508 38.9603C66.6896 38.7407 66.5875 38.3748 66.2356 38.2712C65.9722 38.3407 65.4997 38.819 64.8978 38.9778C64.3335 39.1267 63.9713 38.9865 63.6856 37.9618C62.7537 34.4753 64.8932 27.6638 64.99 24.5344C64.3758 23.6357 63.2548 23.3814 62.2391 23.6495C59.3799 24.4039 56.8596 29.705 53.7854 37.5096C53.5525 35.3709 55.8419 28.9521 55.7901 26.8834C55.5956 26.6204 53.6373 26.1156 52.3958 26.4432C49.1604 27.2969 46.0135 35.71 44.2463 40.3803C43.6881 36.2058 46.4163 31.3606 46.5576 28.1016C44.9794 27.2215 43.7627 26.9139 42.2891 26.9885C41.4023 30.3263 40.3639 34.5685 40.2251 38.4161C40.1436 40.4413 40.3255 42.3971 40.6144 43.5781C41.2451 44.826 41.8797 45.798 43.4515 46.3655C43.8864 45.8971 44.5634 43.4004 45.7027 40.3889C47.4527 35.8018 50.1031 30.3878 51.6251 29.9076C49.7342 35.0033 49.5546 38.7046 49.8749 41.881C50.5605 43.036 51.6707 43.6859 52.8841 43.8372C54.4959 40.3474 57.9468 29.6932 60.3035 28.8749Z" fill="white"/>
<path d="M70.2703 30.9203C70.8724 33.0795 72.0278 33.1675 73.3611 33.1693C72.5195 23.9228 75.3092 14.2288 79.3101 8.73344C78.7476 7.58533 75.7958 6.12474 74.1239 6.2123C71.7712 9.07258 69.1478 26.8948 70.2703 30.9203ZM72.1469 40.8367C73.6517 40.4396 73.5559 38.0683 74.3752 36.5163C73.3715 35.5239 71.3998 34.8262 70.0079 35.1935C68.8792 35.4913 69.0255 38.478 69.3622 39.6856C69.5051 40.198 70.9807 41.1444 72.1469 40.8367Z" fill="white"/>
<path d="M93.8773 21.9679C95.3445 21.5808 97.2121 20.8915 99.2474 20.0795C99.2782 22.5072 98.9928 26.1186 98.715 29.1778C98.0198 37.2583 97.7472 41.4949 97.7665 44.7508C99.3952 46.2462 101.035 46.9135 102.837 46.713C102.361 42.399 102.279 37.9025 102.654 30.8493C102.854 27.2212 103.396 21.3421 104.05 18.1836C105.654 17.5638 107.279 17.0172 108.859 16.6003C109.762 16.3621 111.174 16.068 112.484 15.8402C111.448 13.7171 110.362 12.4319 108.519 12.9183C107.202 13.2658 98.8729 16.5637 93.7189 17.9237C92.0259 18.3704 90.641 18.618 89.9198 18.494C89.8337 18.9096 89.8669 19.608 89.969 19.974C90.4078 21.5476 91.8834 22.4941 93.8773 21.9679Z" fill="white"/>
<path d="M113.817 39.8477C114.069 40.6063 115.308 42.0081 115.646 41.9188C115.834 41.8691 116.109 41.4039 116.167 41.0348C116.986 35.2791 119.483 28.8838 122.333 25.3425C122.747 24.8009 123.405 24.1167 123.555 24.077C123.593 24.0671 123.736 24.1471 123.746 24.1837C122.638 29.623 122.118 34.7106 122.516 36.1379C122.832 37.2724 124.175 38.1754 125.19 37.9074C125.98 37.6989 128.472 35.627 128.37 35.2611C128.34 35.1513 128.271 35.0514 127.944 34.745C127.831 34.7748 127.461 35.1867 126.708 35.3852C126.219 35.5143 126.066 35.3977 125.933 34.9219C125.382 32.9457 127.434 25.0965 129.601 20.9889C128.084 19.896 126.174 19.4179 124.857 19.7653C122.562 20.3709 119.76 24.3713 116.635 31.5606C116.558 27.8091 116.97 24.7932 117.868 20.6273C118.697 16.7939 120.707 11.981 123.428 7.25552C122.308 6.56893 119.778 6.33276 118.198 6.74969C115.836 11.459 113.974 17.9616 113.381 23.6577C112.689 30.0088 112.857 36.4077 113.817 39.8477Z" fill="white"/>
<path d="M132.817 32.8698C133.419 35.029 136.054 35.3551 136.43 35.2558C136.656 35.1963 136.564 34.8669 136.319 33.9886C136.061 32.9174 136.187 31.1949 136.336 29.7018C136.717 26.1438 136.669 23.3668 138.27 20.2728C136.894 19.1036 134.977 18.7452 134.098 18.7806C132.147 20.4741 132.117 24.568 132.157 25.579C132.403 30.2287 132.582 32.0281 132.817 32.8698ZM135.573 15.0911C135.686 15.4936 136.345 15.8304 136.978 15.7813C137.129 14.877 138.967 10.8952 139.81 9.57275C138.752 8.6734 135.71 7.90443 134.544 8.21217C134.343 9.95456 134.48 12.4723 134.714 13.314C134.827 13.7166 135.168 14.2159 135.503 14.4025C135.509 14.7152 135.533 14.9447 135.573 15.0911Z" fill="white"/>
<path d="M151.271 14.9957C150.654 13.9406 146.961 11.8505 145.751 11.8555C143.271 13.0993 141.724 16.5327 142.448 19.131C143.02 21.1804 144.778 22.9952 145.472 25.4838C141.19 26.9281 138.681 30.9688 139.722 34.7016C140.514 35.9464 142.632 36.8805 144.092 36.613C148.005 35.1483 149.716 31.8681 148.583 27.8059C148.42 27.2204 148.28 26.8644 148.178 26.4984C148.025 25.9495 148.193 25.8266 150.382 24.6988C150.437 24.6058 150.451 24.3663 150.4 24.1834C150.349 24.0004 150.339 23.9638 150.281 23.9005C149.491 24.109 148.711 24.354 147.668 24.6686C147.61 24.6053 147.589 24.5321 147.508 24.2394C146.202 19.5551 146.588 16.742 148.582 16.2159C149.109 16.0769 149.628 16.49 149.822 17.1853C149.985 17.7709 149.69 19.0276 149.771 19.3204C149.901 19.6398 150.102 19.7831 150.413 19.7403C151.203 19.5318 151.679 16.8918 151.271 14.9957ZM143.51 34.9594C142.929 34.7591 142.543 34.3894 142.39 33.8405C141.921 32.157 144.268 28.1194 146.153 27.3471C146.857 29.8722 145.652 33.3726 143.51 34.9594Z" fill="white"/>
<path d="M163.677 24.7267C164.28 26.8859 166.915 27.212 167.291 27.1127C167.517 27.0531 167.425 26.7238 167.18 25.8455C166.922 24.7743 167.047 23.0517 167.196 21.5587C167.578 18.0007 167.53 15.2237 169.131 12.1296C167.755 10.9605 165.838 10.6021 164.959 10.6375C163.008 12.331 162.978 16.4248 163.018 17.4359C163.264 22.0855 163.443 23.885 163.677 24.7267ZM166.434 6.94792C166.546 7.35048 167.206 7.68725 167.838 7.63821C167.99 6.73383 169.828 2.7521 170.671 1.42961C169.612 0.530259 166.571 -0.238707 165.405 0.0690256C165.204 1.81142 165.34 4.32914 165.575 5.17086C165.687 5.57342 166.029 6.07272 166.363 6.25941C166.37 6.57203 166.393 6.80154 166.434 6.94792Z" fill="white"/>
<path d="M182.132 6.85251C181.515 5.79745 177.822 3.70731 176.612 3.71235C174.131 4.95618 172.585 8.38955 173.309 10.9879C173.881 13.0373 175.639 14.8521 176.333 17.3406C172.05 18.7849 169.542 22.8256 170.583 26.5584C171.374 27.8033 173.493 28.7373 174.953 28.4699C178.866 27.0051 180.577 23.725 179.444 19.6628C179.281 19.0773 179.141 18.7212 179.039 18.3553C178.886 17.8063 179.054 17.6835 181.243 16.5557C181.298 16.4626 181.312 16.2232 181.261 16.0402C181.21 15.8572 181.2 15.8206 181.142 15.7574C180.352 15.9658 179.572 16.2109 178.529 16.5255C178.471 16.4622 178.45 16.389 178.369 16.0962C177.062 11.4119 177.449 8.5989 179.443 8.07278C179.97 7.9338 180.489 8.34688 180.683 9.04221C180.846 9.62775 180.55 10.8845 180.632 11.1772C180.761 11.4967 180.963 11.6399 181.274 11.5971C182.064 11.3887 182.54 8.7487 182.132 6.85251ZM174.371 26.8162C173.79 26.6159 173.404 26.2463 173.251 25.6973C172.781 24.0139 175.129 19.9763 177.014 19.2039C177.718 21.7291 176.513 25.2294 174.371 26.8162Z" fill="white"/>
<path d="M10.8341 103.163C13.9198 106.697 18.5449 107.833 24.0125 106.391C35.9508 103.241 43.214 89.1184 39.6763 76.4317C37.0775 67.1119 27.7344 62.7672 17.0501 65.5864C8.57285 67.8233 3.31812 73.5054 3.68752 79.8513C4.64667 81.746 6.49593 82.7772 8.13682 82.8681C8.24954 77.2855 10.3799 72.9517 14.0806 70.1941C13.9551 75.1514 11.9704 95.8434 10.8341 103.163ZM19.8873 67.457C27.1607 65.5378 32.864 68.2237 34.7281 74.9086C38.0752 86.9122 31.9079 99.7499 21.0229 102.622C19.4679 103.032 18.0226 103.257 17.0381 103.202C16.521 101.348 16.8472 96.3377 18.3599 87.0854C19.5599 79.8015 21.1519 72.5714 21.8107 70.8784C20.9316 70.4294 18.5076 69.6546 15.3125 69.3975C16.6447 68.5745 18.1818 67.907 19.8873 67.457Z" fill="white"/>
<path d="M59.3462 71.3987C57.5292 70.097 55.816 69.5537 54.2568 69.7556C47.6355 71.5028 42.7374 82.9055 44.9689 90.9079C46.0574 94.8115 49.6233 97.1708 54.3741 96.4411C57.3438 94.9241 60.4306 91.1237 62.3654 86.4747C62.033 86.2481 61.7141 86.0703 61.2814 85.8702C59.7869 88.6219 57.3054 93.0484 53.6938 94.0014C51.7877 94.5043 50.7605 92.3656 50.2979 90.7066C50.1755 90.2675 50.1032 89.8151 49.9943 89.4247C57.5964 83.8566 61.076 79.5334 59.3462 71.3987ZM56.3341 73.9222C57.3215 78.4287 54.4745 83.4755 49.8785 87.4646C49.7965 80.9905 52.8084 75.3763 56.3341 73.9222Z" fill="white"/>
<path d="M66.3806 87.8773C66.9657 89.9755 67.9342 91.7106 68.6449 91.9421C69.178 92.1158 70.1481 92.698 70.3939 92.9998C70.717 93.386 71.5782 93.5778 72.5083 93.4372C72.3902 93.2064 72.3765 93.1577 72.0636 92.0354C70.9207 87.9366 70.6567 81.1962 71.3431 72.843C72.1637 63.0399 74.089 55.4599 77.6321 48.0816C76.849 47.3977 72.8437 46.3592 71.1569 46.49C68.8387 51.502 67.2545 59.7254 66.1891 71.7408C65.5358 79.2472 65.5914 85.0472 66.3806 87.8773Z" fill="white"/>
<path d="M78.2946 84.5765C79.0973 87.4554 82.6112 87.8902 83.1129 87.7578C83.4138 87.6784 83.2914 87.2393 82.9648 86.0682C82.6204 84.6399 82.7877 82.3432 82.9865 80.3525C83.4946 75.6085 83.4315 71.9058 85.5661 67.7804C83.7312 66.2215 81.1747 65.7436 80.0031 65.7908C77.4016 68.0488 77.362 73.5073 77.4148 74.8554C77.7434 81.0549 77.9816 83.4542 78.2946 84.5765ZM81.9701 60.8714C82.1198 61.4082 82.9989 61.8572 83.8423 61.7918C84.0446 60.586 86.4954 55.277 87.6192 53.5137C86.2078 52.3146 82.1523 51.2893 80.5973 51.6996C80.3296 54.0228 80.5118 57.3797 80.8247 58.502C80.9744 59.0388 81.4293 59.7045 81.8757 59.9534C81.8842 60.3703 81.9157 60.6763 81.9701 60.8714Z" fill="white"/>
<path d="M88.9167 76.0636C90.3454 81.1871 95.1586 84.7365 99.6816 83.9621C101.83 82.9761 105.168 79.1095 106.626 75.8434C106.545 75.5506 106.158 75.1289 105.853 74.9999C103.369 78.065 100.233 80.7258 98.345 81.486C96.9914 81.2669 95.9541 79.8643 95.2193 77.2294C94.0628 73.0818 94.5293 68.7679 96.5177 64.8906C97.8157 62.4003 99.692 60.4384 100.996 60.0943C101.749 59.8958 102.286 60.2778 102.544 61.2049C102.994 62.8152 102.393 64.9118 100.694 67.508C101.463 68.1431 102.516 68.4416 103.319 68.2298C105.225 67.7268 106.314 64.2962 105.484 61.3197C104.614 58.1968 102.168 56.9564 98.7065 57.8697C91.6839 59.7227 86.8622 68.6956 88.9167 76.0636Z" fill="white"/>
<path d="M111.213 75.8905C112.016 78.7694 115.529 79.2042 116.031 79.0718C116.332 78.9924 116.21 78.5532 115.883 77.3822C115.539 75.9539 115.706 73.6572 115.905 71.6664C116.413 66.9225 116.35 63.2198 118.484 59.0944C116.649 57.5355 114.093 57.0576 112.921 57.1048C110.32 59.3628 110.28 64.8213 110.333 66.1694C110.662 72.3689 110.9 74.7682 111.213 75.8905ZM114.888 52.1854C115.038 52.7222 115.917 53.1712 116.761 53.1058C116.963 51.9 119.414 46.591 120.537 44.8277C119.126 43.6285 115.07 42.6033 113.515 43.0136C113.248 45.3368 113.43 48.6937 113.743 49.816C113.893 50.3528 114.348 51.0185 114.794 51.2674C114.802 51.6842 114.834 51.9903 114.888 52.1854Z" fill="white"/>
<path d="M130.324 76.1909C137.887 72.4142 141.71 63.9144 139.438 55.7656C138.567 52.6428 137.306 51.4039 135.5 51.8804C135.199 51.9598 134.912 52.0881 134.611 52.1675C133.131 50.7244 131.688 49.7957 130.485 49.5369C128.93 49.9472 127.314 51.1068 125.876 52.9008C122.1 57.5118 120.394 64.7196 121.85 69.9407C123.074 74.3322 126.403 76.8065 130.324 76.1909ZM128.596 60.1455C129.666 57.6106 131.439 54.8903 134.117 53.2931C134.759 53.8571 135.218 54.7313 135.681 56.3903C137.803 64.0023 135.181 71.3996 129.565 74.2433C128.859 74.2202 127.731 72.6844 127.295 71.123C126.574 68.5369 127.119 63.7309 128.596 60.1455Z" fill="white"/>
<path d="M159.415 65.5289C161.255 66.1433 163.808 66.4128 164.71 66.1745C164.71 66.1745 164.898 66.0728 164.857 65.9264C164.68 65.2921 163.277 64.5098 162.501 61.7285C161.073 56.605 163.411 50.1208 164.277 43.7633C163.471 43.1902 160.832 42.996 159.076 43.4592C157.404 46.153 157.14 49.2611 156.987 51.0301C156.686 54.2002 155.058 57.8253 154.208 59.988C152.469 64.3756 151.564 66.3432 150.669 66.9983C150.542 66.9272 150.209 66.7006 150.073 66.2127C149.597 64.5048 149.814 59.6807 150.058 58.0447C151.135 50.3217 152.86 45.8853 153.285 45.0922C151.969 44.2346 149.553 44.4531 148.399 44.7575C145.015 48.8458 143.753 58.0319 143.924 63.2778C144.004 64.7235 144.176 65.7259 144.679 67.5313C145.87 69.6791 149.074 70.3529 151.208 69.8946C151.646 69.7267 152.335 68.9161 152.943 67.8128C153.693 66.253 155.903 60.2741 156.468 60.1773C156.44 60.6562 156.503 61.2682 156.707 62.0001C157.02 63.1224 157.875 64.8351 159.415 65.5289Z" fill="white"/>
<path d="M182.747 39.6755C181.924 38.2687 177 35.4819 175.386 35.4886C172.079 37.147 170.017 41.7249 170.983 45.1893C171.745 47.9218 174.089 50.3416 175.014 53.6597C169.305 55.5854 165.96 60.973 167.348 65.95C168.403 67.6099 171.228 68.8552 173.175 68.4986C178.392 66.5457 180.673 62.1721 179.163 56.7559C178.945 55.9751 178.759 55.5004 178.623 55.0125C178.419 54.2806 178.642 54.1168 181.562 52.613C181.635 52.489 181.653 52.1697 181.585 51.9258C181.517 51.6818 181.504 51.633 181.426 51.5486C180.373 51.8266 179.333 52.1533 177.942 52.5727C177.865 52.4884 177.838 52.3908 177.729 52.0004C175.987 45.7547 176.503 42.004 179.162 41.3025C179.864 41.1172 180.556 41.668 180.815 42.5951C181.032 43.3758 180.638 45.0514 180.747 45.4418C180.919 45.8677 181.188 46.0587 181.603 46.0016C182.656 45.7237 183.29 42.2037 182.747 39.6755ZM172.398 66.2938C171.624 66.0267 171.109 65.5338 170.905 64.8019C170.279 62.5573 173.409 57.1739 175.923 56.144C176.861 59.5109 175.255 64.178 172.398 66.2938Z" fill="white"/>
<path d="M187.947 49.3043C188.75 52.1831 190.29 52.3005 192.068 52.3029C190.946 39.9742 194.665 27.0488 200 19.7217C199.25 18.1909 195.314 16.2434 193.085 16.3602C189.948 20.1739 186.45 43.9368 187.947 49.3043ZM190.449 62.5261C192.456 61.9967 192.328 58.8349 193.42 56.7655C192.082 55.4423 189.453 54.5121 187.597 55.0018C186.092 55.3989 186.287 59.3811 186.736 60.9913C186.927 61.6744 188.894 62.9364 190.449 62.5261Z" fill="white"/>
</svg>
